<?xml version="1.0" encoding="UTF-8" standalone="no"?>
<!DOCTYPE svg PUBLIC "-//W3C//DTD SVG 1.1//EN" "http://www.w3.org/Graphics/SVG/1.1/DTD/svg11.dtd">
<!-- Created with Vectornator (http://vectornator.io/) -->
<svg height="100%" stroke-miterlimit="10" style="fill-rule:nonzero;clip-rule:evenodd;stroke-linecap:round;stroke-linejoin:round;" version="1.1" viewBox="0 0 1024 1024" width="100%" xml:space="preserve" xmlns="http://www.w3.org/2000/svg" xmlns:vectornator="http://vectornator.io" xmlns:xlink="http://www.w3.org/1999/xlink">
<defs>
<path d="M952.124 512C952.124 266.081 752.767 66.7236 506.847 66.7236C260.928 66.7236 61.5711 266.081 61.5711 512C61.5711 757.919 260.928 957.276 506.847 957.276C752.767 957.276 952.124 757.919 952.124 512Z" id="Fill"/>
</defs>
<g id="Layer-3" vectornator:layerName="Layer 3"/>
<clipPath id="ArtboardFrame">
<rect height="1024" width="1024" x="0" y="0"/>
</clipPath>
<g clip-path="url(#ArtboardFrame)" id="Layer-1" vectornator:layerName="Layer 1" visibility="hidden">
<path d="M586.933 204.878C542.819 192.275 491.707 200.426 448.419 212.793C421.379 220.519 395.875 232.442 370.588 244.454C336.398 260.694 302.804 277.771 279.564 309.093C263.071 331.324 253.314 361.889 246.585 388.244C229.423 455.464 239.052 508.87 259.777 572.929C265.898 591.85 270.283 613.342 282.203 629.653C297.748 650.926 318.867 676.554 341.566 690.335C354.51 698.194 369.003 703.178 382.46 710.123C391.039 714.551 398.736 720.639 407.525 724.634C436.521 737.814 474.106 736.757 505.144 739.145C527.6 740.872 552.744 743.811 575.06 740.464C618.64 733.927 664.711 716.838 701.701 692.974C707.243 689.398 712.78 685.676 717.531 681.101C751.206 648.674 775.643 607.839 782.171 561.056C786.541 529.738 784.916 504.751 779.532 473.99C774.967 447.9 771.483 419.356 761.064 394.84C754.131 378.526 744.075 363.7 734.68 348.669C718.837 323.319 708.583 304.217 685.871 284.029C663.587 264.221 637.245 255.132 610.678 243.134C596.836 236.883 582.961 230.515 568.464 225.985C552.02 220.846 534.905 220.893 518.335 216.751" fill="none" opacity="1" stroke="#59bae6" stroke-linecap="round" stroke-linejoin="miter" stroke-width="10"/>
<path d="M651.572 728.591C649.759 732.218 656.201 735.452 659.487 737.826C664.336 741.328 669.328 744.643 673.998 748.379C686.545 758.417 697.757 772.407 706.978 785.316C723.809 808.879 732.419 833.134 743.915 859.19C750.714 874.602 762.342 890.726 767.66 906.68" fill="none" opacity="1" stroke="#59bae6" stroke-linecap="round" stroke-linejoin="miter" stroke-width="10"/>
<path d="M383.779 723.315C370.504 725.97 356.154 735.865 346.842 745.741C336.143 757.089 326.175 769.125 316.501 781.359C283.286 823.366 262.415 877.869 262.415 931.745" fill="none" opacity="1" stroke="#59bae6" stroke-linecap="round" stroke-linejoin="miter" stroke-width="10"/>
<path d="M458.972 741.783C450.061 737.328 441.381 749.261 436.546 754.975C426.709 766.601 419.964 781.936 414.12 795.87C398.688 832.671 394.287 868.535 393.014 908C392.617 920.305 391.547 932.712 393.014 944.936C394.349 956.067 397.967 966.826 399.609 977.916C400.521 984.067 401.135 990.266 402.248 996.384C403.622 1003.94 404.711 1021.45 414.12 1021.45" fill="none" opacity="1" stroke="#59bae6" stroke-linecap="round" stroke-linejoin="miter" stroke-width="10"/>
<path d="M611.997 736.507C641.072 780.12 649.193 830.925 655.53 881.616C658.669 906.73 664.546 939.211 658.168 964.724C652.914 985.74 637.535 1002.87 623.87 1018.81" fill="none" opacity="1" stroke="#59bae6" stroke-linecap="round" stroke-linejoin="miter" stroke-width="10"/>
<path d="M241.308 389.563C230.431 384.124 223.639 375.439 209.648 376.371C197.023 377.213 184.45 386.169 174.03 392.201C142.358 410.538 130.173 435.539 123.902 470.033C121.057 485.676 117.388 502.868 119.944 518.842C125.504 553.595 153.193 594.609 193.818 587.44C206.703 585.166 209.853 580.741 220.201 575.567" fill="none" opacity="1" stroke="#59bae6" stroke-linecap="round" stroke-linejoin="miter" stroke-width="10"/>
<path d="M787.447 380.329C785.912 377.257 792.053 374.652 795.363 373.733C800.099 372.417 804.96 371.264 809.873 371.095C817.796 370.821 825.766 371.331 833.619 372.414C851.99 374.948 872.613 385.212 885.067 398.797C898.779 413.756 900.073 436.571 900.897 455.522C903.697 519.922 864.954 575.567 796.682 575.567" fill="none" opacity="1" stroke="#59bae6" stroke-linecap="round" stroke-linejoin="miter" stroke-width="10"/>
<path d="M546.038 580.844C535.716 587.385 522.873 576.749 530.208 565.014C533.278 560.101 553.297 552.882 557.911 558.418C563.594 565.237 550.804 577.824 546.038 580.844Z" fill="none" opacity="1" stroke="#59bae6" stroke-linecap="round" stroke-linejoin="miter" stroke-width="10"/>
<path d="M451.88 504.537C451.412 505.982 449.809 513.149 445.918 513.149C439.557 513.149 435.787 500.587 433.994 495.925C430.073 485.732 429.155 471.574 441.943 466.778C460.051 459.988 457.648 509.885 449.892 511.824C444.471 513.179 443.461 499.733 443.268 498.575C442.039 491.201 439.732 481.533 444.593 474.727C451.121 465.588 455.615 486.392 455.192 490.626C454.809 494.455 453.019 501.013 451.88 504.537Z" fill="none" opacity="1" stroke="#59bae6" stroke-linecap="round" stroke-linejoin="miter" stroke-width="10"/>
<path d="M626.763 497.913C625.719 500.203 624.555 503.212 622.126 503.875C619.751 504.523 616 492.797 615.502 485.326C614.923 476.643 614.216 460.154 627.426 460.154C639.948 460.154 639.061 496.166 631.4 502.55C627.022 506.198 624.819 493.468 624.776 493.276C623.415 487.152 620.002 477.126 622.126 470.753C623.556 466.464 629.733 469.638 630.076 473.403C630.969 483.231 630.742 489.189 626.763 497.913Z" fill="none" opacity="1" stroke="#59bae6" stroke-linecap="round" stroke-linejoin="miter" stroke-width="10"/>
<path d="M505.537 644.312C510.692 649.467 514.516 655.414 520.111 660.21C533.517 671.701 556.878 672.131 567.806 657.56" fill="none" opacity="1" stroke="#59bae6" stroke-linecap="round" stroke-linejoin="miter" stroke-width="10"/>
<path d="M239.237 525.073C232.051 521.48 236.288 504.719 237.912 497.25C242.368 476.753 247.831 464.712 260.435 448.23C278.397 424.742 300.222 404.479 324.029 387.286C331.105 382.175 341.574 372.898 349.202 368.737C362.378 361.55 375.479 362.051 388.948 356.813C402.443 351.565 408.987 348.26 423.395 347.539C432.216 347.098 441.128 346.444 449.892 347.539C468.497 349.865 496.171 372.319 506.862 387.286C513.826 397.035 517.541 408.645 522.761 419.083C522.992 419.546 525.857 429.458 528.06 428.357C529.245 427.764 528.06 425.707 528.06 424.382C528.06 414.929 527.796 407.111 530.71 397.885C536.811 378.565 546.979 365.75 563.832 354.164C587.161 338.124 610.659 335.529 638.025 338.265C645.375 339 653.556 339.132 660.548 342.24C671.064 346.914 680.272 355.555 691.02 359.463C696.625 361.501 704.034 362.303 709.568 364.763C727.098 372.554 747.046 384.912 759.913 399.209C771.32 411.884 783.825 428.51 790.386 444.255C792.678 449.757 792.911 455.93 795.685 461.479" fill="none" opacity="1" stroke="#59bae6" stroke-linecap="round" stroke-linejoin="miter" stroke-width="10"/>
</g>
<g clip-path="url(#ArtboardFrame)" id="Layer-2" vectornator:layerName="Layer 2">
<use fill="#f7f7f7" fill-rule="nonzero" opacity="1" stroke="#4e9cf6" stroke-linecap="round" stroke-linejoin="miter" stroke-width="10" xlink:href="#Fill"/>
<clipPath id="ClipPath">
<use xlink:href="#Fill"/>
</clipPath>
<g clip-path="url(#ClipPath)">
<path d="M751.28 908.38C751.28 846.035 692.538 738.387 621.431 723.315C572.015 712.841 553.074 723.315 498.658 723.315C451.82 723.315 411.498 681.676 369.958 719.395C304.237 779.072 246.035 863.848 246.035 931.745C246.035 1033.95 359.138 1093.44 498.658 1093.44C638.177 1093.44 751.28 1010.59 751.28 908.38Z" fill="#4e9cf6" fill-rule="nonzero" opacity="1" stroke="none"/>
<path d="M545.471 244.098C545.471 244.098 521.874 221.176 491.964 209.792C462.053 198.408 425.828 198.562 425.828 198.562" fill="none" opacity="1" stroke="#4e9cf6" stroke-linecap="round" stroke-linejoin="miter" stroke-width="10"/>
<path d="M659.802 957.276C659.802 896.027 596.65 762.482 570.124 723.315C545.213 686.533 522.514 668.676 485.383 668.676C436.355 668.676 425.828 670.038 398.445 728.591C371.061 787.145 346.56 888.924 346.56 931.745C346.56 1050.51 408.713 1098.78 485.383 1098.78C562.053 1098.78 659.802 1076.04 659.802 957.276Z" fill="#eeeaea" fill-opacity="0.507094" fill-rule="nonzero" opacity="1" stroke="none"/>
<path d="M504.32 203.656C626.909 203.656 731.471 276.154 772.289 378.062C777.531 377.018 783.431 376.342 790.632 376.312C862.299 376.021 894.601 429.667 894.601 489.656C894.601 549.646 862.525 598.281 822.945 598.281C795.178 598.281 761.699 600.696 751.28 588.264C707.666 684.629 622.666 742.406 504.32 742.406C385.77 742.406 284.059 674.599 240.57 577.969C231.782 584.246 219.957 589.037 203.82 591.906C164.851 598.835 124.728 556.594 114.226 497.531C103.724 438.468 126.178 379.978 196.789 367.719C217.749 364.08 238.182 364.136 246.035 371.022C288.091 271.475 383.535 203.656 504.32 203.656Z" fill="#4e9cf6" fill-rule="nonzero" opacity="1" stroke="none"/>
<path d="M772.387 487.284C772.462 466.144 726.683 386.599 638.38 357.403C600.888 345.006 610.362 348.122 581.38 344.403C554.032 340.893 540.876 354.949 518.38 371.403C509.23 378.094 498.259 402.899 485.38 427.403C471.384 454.032 485.65 376.301 454.38 355.403C425.5 336.102 398.445 337.32 378.38 337.403C352.673 337.509 330.446 346.322 297.38 367.403C258.589 392.133 255.38 414.403 241.38 440.403C227.38 466.403 226.49 598.267 287.38 658.403C353.519 723.722 412.876 742.404 502.38 738.403C570.762 735.345 595.068 728.396 658.38 697.403C690.598 681.631 724.047 656.494 755.38 591.403C772.25 556.355 772.219 534.285 772.387 487.284Z" fill="#f7f7f7" fill-rule="nonzero" opacity="1" stroke="#4e9cf6" stroke-linecap="butt" stroke-linejoin="miter" stroke-width="20"/>
<path d="M586.801 492.828C586.801 478.104 579.334 466.169 570.124 466.169C560.913 466.169 553.447 478.104 553.447 492.828C553.447 507.551 560.913 519.487 570.124 519.487C579.334 519.487 586.801 507.551 586.801 492.828Z" fill="#4e9cf6" fill-rule="nonzero" opacity="1" stroke="none"/>
<path d="M404.234 486.813C404.234 472.09 396.767 460.154 387.557 460.154C378.346 460.154 370.88 472.09 370.88 486.813C370.88 501.537 378.346 513.472 387.557 513.472C396.767 513.472 404.234 501.537 404.234 486.813Z" fill="#4e9cf6" fill-rule="nonzero" opacity="1" stroke="none"/>
<path d="M484.885 574.485C487.092 567.451 481.756 559.514 472.968 556.757C464.18 554 455.267 557.467 453.06 564.501C450.854 571.535 456.189 579.472 464.977 582.229C473.765 584.986 482.678 581.519 484.885 574.485Z" fill="none" opacity="1" stroke="#4e9cf6" stroke-linecap="butt" stroke-linejoin="miter" stroke-width="10"/>
<path d="M513.546 642.237C513.546 642.237 505.455 662.196 487.654 667.05C469.853 671.905 461.223 671.905 446.119 658.959" fill="none" opacity="1" stroke="#4e9cf6" stroke-linecap="round" stroke-linejoin="miter" stroke-width="10"/>
<path d="M850.071 519.102C858.786 481.145 844.19 425.558 816.255 419.143C769.016 408.296 721.858 422.924 729.857 498.63C733.95 537.359 716.991 554.665 777.577 562.812C824.197 569.082 841.355 557.06 850.071 519.102Z" fill="#f7f7f7" fill-rule="nonzero" opacity="1" stroke="none"/>
<path d="M274.771 491.697C274.771 452.752 248.105 401.841 219.442 401.841C170.974 401.841 141.756 412.586 141.514 492.828C141.433 519.73 179.441 579.712 218.01 559.955C247.661 544.766 274.771 530.642 274.771 491.697Z" fill="#f7f7f7" fill-rule="nonzero" opacity="1" stroke="none"/>
</g>
</g>
</svg>
