<?xml version="1.0" encoding="UTF-8" standalone="no"?>
<!DOCTYPE svg PUBLIC "-//W3C//DTD SVG 1.1//EN" "http://www.w3.org/Graphics/SVG/1.1/DTD/svg11.dtd">
<!-- Created with Vectornator (http://vectornator.io/) -->
<svg height="100%" stroke-miterlimit="10" style="fill-rule:nonzero;clip-rule:evenodd;stroke-linecap:round;stroke-linejoin:round;" version="1.1" viewBox="0 0 1024 1024" width="100%" xml:space="preserve" xmlns="http://www.w3.org/2000/svg" xmlns:vectornator="http://vectornator.io" xmlns:xlink="http://www.w3.org/1999/xlink">
<defs>
<path d="M61.5711 512C61.5711 266.081 260.928 66.7236 506.847 66.7236C752.767 66.7236 952.124 266.081 952.124 512C952.124 757.919 752.767 957.276 506.847 957.276C260.928 957.276 61.5711 757.919 61.5711 512Z" id="Fill"/>
</defs>
<g id="Layer-2" vectornator:layerName="Layer 2"/>
<clipPath id="ArtboardFrame">
<rect height="1024" width="1024" x="0" y="0"/>
</clipPath>
<g clip-path="url(#ArtboardFrame)" id="Layer-1" vectornator:layerName="Layer 1" visibility="hidden">
<path d="M280.146 470.457C266.958 467.198 251.635 465.006 239.234 460.348C207.21 448.317 176.355 397.889 164.201 366.411C159.384 353.936 156.685 333.316 154.931 320.71C153.121 307.707 148.128 279.867 160.708 269.589C168.279 263.403 201.987 272.168 210.208 272.681C278.723 276.961 336.999 323.339 360.074 387.393" fill="none" opacity="1" stroke="#59bae6" stroke-linecap="round" stroke-linejoin="miter" stroke-width="10"/>
<path d="M360.074 386.573C365.511 375.699 394.003 367.405 406.652 364.393C418.361 361.605 430.38 360.295 442.141 357.739C497.933 345.61 569.198 351.659 624.02 366.611C636.696 370.068 657.118 368.484 663.944 382.137" fill="none" opacity="1" stroke="#59bae6" stroke-linecap="round" stroke-linejoin="miter" stroke-width="10"/>
<path d="M662.371 384.337C654.834 373.564 663.877 355.362 670.019 345.089C695.069 303.195 731.354 294.389 771.615 274.01" fill="none" opacity="1" stroke="#59bae6" stroke-linecap="round" stroke-linejoin="miter" stroke-width="10"/>
<path d="M782.261 270.193C802.399 262.974 818.862 255.811 840.206 252.655C843.935 252.103 847.825 246.591 850.852 248.838C852.18 249.824 849.469 251.906 849.307 253.551C848.937 257.303 848.926 261.081 848.735 264.846C848.088 277.632 850.386 290.497 847.669 303.121C840.78 335.136 827.795 395.719 798.966 413.463C786.347 421.229 778.881 430.569 762.963 427.756" fill="none" opacity="1" stroke="#59bae6" stroke-linecap="round" stroke-linejoin="miter" stroke-width="10"/>
<path d="M789.293 423.862C769.367 426.809 755.517 451.279 735.489 454.241" fill="none" opacity="1" stroke="#59bae6" stroke-linecap="round" stroke-linejoin="miter" stroke-width="10"/>
<path d="M302.405 475.295C294.128 483.571 297.969 499.425 297.969 510.783C297.969 534.442 297.969 558.101 297.969 581.76C297.969 599.046 300.99 615.795 302.405 632.775C303.586 646.952 300.444 660.988 304.623 674.917C315.615 711.556 345.505 737.98 371.164 763.639C376.392 768.867 378.792 776.65 384.472 781.383C386.268 782.88 389.096 782.441 391.126 783.601C407.46 792.935 423.453 800.685 442.141 805.781C452.876 808.709 463.025 809.046 473.193 812.436" fill="none" opacity="1" stroke="#59bae6" stroke-linecap="round" stroke-linejoin="miter" stroke-width="10"/>
<path d="M743.794 464.204C735.346 468.428 743.05 493.741 743.794 499.693C746.188 518.846 746.629 538.154 748.23 557.362C749.892 577.307 750.732 601.669 748.23 621.685C745.213 645.821 732.844 672.348 723.831 694.88C705.793 739.974 644.133 781.002 601.839 799.127C596.361 801.475 592.045 806.362 586.313 807.999C581.286 809.436 575.641 808.276 570.787 810.218C551.634 817.879 524.153 837.929 502.028 832.398C484.662 828.056 472.108 815.786 459.885 803.563" fill="none" opacity="1" stroke="#59bae6" stroke-linecap="round" stroke-linejoin="miter" stroke-width="10"/>
<path d="M435.487 799.127C422.078 799.127 416.262 813.526 408.87 823.526C400.696 834.585 392.359 845.53 384.472 856.796C357.337 895.56 340.935 941.606 331.239 987.66C329.754 994.717 324.585 1013.18 324.585 1023.15" fill="none" opacity="1" stroke="#59bae6" stroke-linecap="round" stroke-linejoin="miter" stroke-width="10"/>
<path d="M659.508 772.511C683.7 808.798 715.876 840.437 737.139 878.977C745.3 893.767 749.909 910.271 757.102 925.555C762.6 937.238 769.172 948.603 772.628 961.044C778.133 980.863 776.806 1011.8 792.59 1027.58" fill="none" opacity="1" stroke="#59bae6" stroke-linecap="round" stroke-linejoin="miter" stroke-width="10"/>
<path d="M287.496 425.758C282.026 437.051 269.803 429.096 258.252 426.242C232.523 419.885 172.14 385.284 195.113 348.966C198.322 343.893 215.189 343.684 218.895 342.85C225.226 341.425 231.863 339.646 238.252 340.78C268.558 346.159 300.14 399.653 287.496 425.758Z" fill="none" opacity="1" stroke="#59bae6" stroke-linecap="round" stroke-linejoin="miter" stroke-width="10"/>
<path d="M733.209 395.766C715.527 405.236 736.587 366.018 738.457 363.046C754.312 337.857 771.969 325.451 798.186 312.18C804.847 308.809 808.733 304.096 817.442 305.97C822.889 307.142 822.067 316.635 821.521 322.18C820.909 328.391 815.909 342.849 812.009 348.805C802.282 363.657 785.215 377.554 768.432 383.832C756.383 388.338 744.694 389.615 733.209 395.766Z" fill="none" opacity="1" stroke="#59bae6" stroke-linecap="round" stroke-linejoin="miter" stroke-width="10"/>
<path d="M499.671 770.332C509.835 790.661 544.668 785.961 554.013 767.27" fill="none" opacity="1" stroke="#59bae6" stroke-linecap="round" stroke-linejoin="miter" stroke-width="10"/>
<path d="M417.184 688.52C417.118 690.505 417.006 692.801 415.689 694.288C410.084 700.615 401.014 692.272 398.598 687.879C393.317 678.277 399.083 669.038 406.716 663.525C409.568 661.465 410.303 660.99 414.407 660.534C427.572 659.071 430.166 690.028 416.543 693.434C402.856 696.855 401.615 677.599 408.852 670.361C417.258 661.956 422.415 686.597 413.98 686.597C406.917 686.597 411.993 666.964 415.261 676.77C415.765 678.281 415.859 679.899 416.116 681.47C416.5 683.816 417.263 686.145 417.184 688.52Z" fill="none" opacity="1" stroke="#59bae6" stroke-linecap="round" stroke-linejoin="miter" stroke-width="10"/>
<path d="M634.877 681.043C626.508 684.39 620.763 675.432 619.068 668.652C616.079 656.697 621.502 646.553 634.022 643.871C635.554 643.542 637.276 643.268 638.722 643.871C651.847 649.339 648.672 664.982 642.995 674.207C640.904 677.604 637.207 682.752 632.74 682.752C618.43 682.752 624.834 651.404 636.158 654.98C644.535 657.625 644.759 675.488 634.449 675.488C626.938 675.488 632.296 654.552 638.722 654.552C639.87 654.552 640.165 656.426 640.431 657.543C641.027 660.047 640.978 666.483 640.431 669.079C639.939 671.418 637.247 673.449 637.013 669.934C636.909 668.371 636.915 666.798 637.013 665.234C637.085 664.088 637.44 662.964 637.44 661.816" fill="none" opacity="1" stroke="#59bae6" stroke-linecap="round" stroke-linejoin="miter" stroke-width="10"/>
<path d="M298.725 536.067C303.947 538.678 311.979 529.744 317.356 527.3C332.155 520.573 346.883 517.687 363.384 519.628C373.88 520.863 383.924 524.959 394.069 527.3C412.496 531.552 431.579 537.964 446.673 550.314C462.351 563.142 470.799 579.936 479.55 597.438C497.483 633.304 508.044 673.592 508.044 713.604" fill="none" opacity="1" stroke="#59bae6" stroke-linecap="round" stroke-linejoin="miter" stroke-width="10"/>
<path d="M537.633 715.796C536.903 716.161 536.019 717.469 535.441 716.892C534.333 715.783 536.537 684.451 536.537 681.823C536.537 664.266 534.58 645.423 537.633 628.123C540.361 612.669 546.533 598.462 552.976 584.287C560.916 566.818 576.491 547.101 592.429 536.067C598.338 531.976 605.053 529.112 611.059 525.108C633.525 510.131 658.225 497.535 685.581 493.327C704.369 490.436 723.801 492.231 742.568 492.231" fill="none" opacity="1" stroke="#59bae6" stroke-linecap="round" stroke-linejoin="miter" stroke-width="10"/>
<path d="M530.857 740.733C528.24 741.492 518.46 741.245 511.845 736.283C503.713 730.185 507.846 720.692 515.89 717.675C521.554 715.552 531.102 714.683 536.925 716.866C542.077 718.799 545.478 729.983 543.397 734.665C541.421 739.113 534.085 739.797 530.857 740.733Z" fill="none" opacity="1" stroke="#59bae6" stroke-linecap="round" stroke-linejoin="miter" stroke-width="10"/>
<path d="M405.397 669.226C400.39 667.558 398.772 647.637 404.42 644.813" fill="none" opacity="1" stroke="#59bae6" stroke-linecap="round" stroke-linejoin="miter" stroke-width="10"/>
<path d="M633.909 652.625C641.181 648.989 638.971 633.633 636.839 627.235" fill="none" opacity="1" stroke="#59bae6" stroke-linecap="round" stroke-linejoin="miter" stroke-width="10"/>
</g>
<g id="Layer-3" vectornator:layerName="Layer 3">
<use fill="#f7f7f7" fill-rule="nonzero" opacity="1" stroke="#48c8a7" stroke-linecap="round" stroke-linejoin="miter" stroke-width="10" xlink:href="#Fill"/>
<clipPath id="ClipPath">
<use xlink:href="#Fill"/>
</clipPath>
<g clip-path="url(#ClipPath)">
<path d="M342.809 957.276C360.074 858.392 444.447 750.29 535.13 740.179C638.906 728.608 677.115 784.893 749.807 900.048C785.932 957.276 641.593 1023.15 550.349 1023.15C459.104 1023.15 329.908 1031.16 342.809 957.276Z" fill="#48c8a7" fill-rule="nonzero" opacity="1" stroke="none"/>
<path d="M298.725 512C298.725 512 292.473 634.608 305.31 673.118C318.146 711.628 356.656 757.931 382.329 779.936C408.002 801.942 489.606 829.907 524.906 830.366C560.207 830.824 624.848 790.939 644.103 777.186C663.357 763.432 725.248 719.421 734.875 670.826C744.503 622.23 742.568 518.847 742.568 475.295" fill="#f7f7f7" fill-rule="nonzero" opacity="1" stroke="#48c8a7" stroke-linecap="round" stroke-linejoin="miter" stroke-width="10"/>
<path d="M299.212 537.838C299.212 537.838 323.331 513.17 352.933 514.267C382.534 515.363 426.388 530.164 452.152 549.898C477.916 569.632 518.417 630.41 519.965 652.832C524.229 714.578 503.672 724.03 512.009 718.752C531.422 706.46 535.13 708.305 535.13 717.435C535.13 720.228 535.13 713.604 535.13 657.02C535.13 616.009 542.875 593.34 569.461 557.024C596.048 520.708 644.013 506.592 644.013 506.592C644.013 506.592 675.259 492.888 705.956 491.243C736.654 489.599 742.727 491.68 742.727 491.68L742.727 454.241C742.727 454.241 794.212 422.722 809.013 403.536C823.814 384.349 854.076 326.922 855.173 305.544C856.269 284.165 865.064 264.163 848.481 251.692C831.899 239.221 798.049 264.3 778.315 271.974C758.581 279.648 727.335 287.871 690.607 318.021C653.88 348.17 672.518 379.964 658.265 374.482C644.013 369.001 576.587 353.104 549.727 352.007C522.866 350.911 494.91 349.266 431.322 357.489C367.733 365.712 362.8 402.439 358.415 388.735C354.029 375.031 350.74 367.904 339.228 345.429C327.717 322.954 286.056 296.642 266.321 285.13C246.587 273.619 182.862 252.514 157.783 274.167C132.704 295.82 157.235 342.688 166.006 371.742C174.777 400.795 203.282 435.878 226.305 453.419C249.328 470.961 301.405 471.509 301.405 471.509L299.212 508.237" fill="#48c8a7" fill-rule="nonzero" opacity="1" stroke="#48c8a7" stroke-linecap="round" stroke-linejoin="miter" stroke-width="10"/>
<path d="M206.164 356.895C217.694 339.031 256.179 346.646 281.405 362.928C306.631 379.21 312.468 408.145 306.203 424.755C299.937 441.364 281.569 445.648 256.343 429.366C231.118 413.085 194.634 374.759 206.164 356.895Z" fill="#f7f7f7" fill-rule="nonzero" opacity="1" stroke="none"/>
<path d="M814.19 312.976C802.66 295.112 761.983 313.012 736.757 329.293C711.531 345.575 705.694 374.511 711.959 391.12C718.225 407.73 736.593 412.013 761.819 395.731C787.044 379.45 825.721 330.84 814.19 312.976Z" fill="#f7f7f7" fill-rule="nonzero" opacity="1" stroke="none"/>
<path d="M506.847 730.323C506.847 723.932 515.168 718.752 525.433 718.752C535.697 718.752 544.018 723.932 544.018 730.323C544.018 736.713 535.697 741.894 525.433 741.894C515.168 741.894 506.847 736.713 506.847 730.323Z" fill="none" opacity="1" stroke="#48c8a7" stroke-linecap="round" stroke-linejoin="miter" stroke-width="10"/>
<path d="M394.779 685.145C392.154 673.108 398.796 660.388 409.616 656.735C420.435 653.081 431.334 659.878 433.959 671.915C436.584 683.951 429.942 696.671 419.122 700.325C408.303 703.978 397.404 697.182 394.779 685.145Z" fill="#48c8a7" fill-rule="nonzero" opacity="1" stroke="none"/>
<path d="M614.319 668.91C611.694 656.873 618.337 644.153 629.156 640.5C639.975 636.846 650.874 643.642 653.499 655.679C656.125 667.716 649.482 680.436 638.663 684.089C627.843 687.743 616.944 680.947 614.319 668.91Z" fill="#48c8a7" fill-rule="nonzero" opacity="1" stroke="none"/>
<path d="M401.808 666.846C401.808 666.846 395.914 644.378 403.163 645.22" fill="none" opacity="1" stroke="#48c8a7" stroke-linecap="round" stroke-linejoin="miter" stroke-width="10"/>
<path d="M621.348 650.611C621.348 650.611 615.454 628.143 622.704 628.985" fill="none" opacity="1" stroke="#48c8a7" stroke-linecap="round" stroke-linejoin="miter" stroke-width="10"/>
<path d="M498.227 768.134C498.227 768.134 509.367 787.258 528.813 783.746C548.259 780.235 555.196 764.994 555.196 764.994" fill="none" opacity="1" stroke="#48c8a7" stroke-linecap="round" stroke-linejoin="miter" stroke-width="10"/>
<path d="M444.723 497.286L451.189 509.635C451.977 511.141 451.258 512.126 449.584 511.836L435.849 509.457C434.175 509.167 431.854 509.916 430.666 511.131L420.919 521.097C419.731 522.312 418.572 521.933 418.33 520.251L416.349 506.453C416.107 504.771 414.677 502.795 413.155 502.041L400.665 495.85C399.142 495.096 399.144 493.876 400.67 493.127L413.18 486.979C414.705 486.229 416.142 484.259 416.389 482.577L418.417 468.786C418.664 467.105 419.824 466.73 421.008 467.949L430.722 477.947C431.906 479.166 435.899 479.639 435.899 479.639L449.642 477.306C451.317 477.021 452.033 478.009 451.239 479.512L444.732 491.839C443.939 493.342 443.934 495.781 444.723 497.286Z" fill="#f7f7f7" fill-rule="nonzero" opacity="1" stroke="none"/>
<path d="M479.244 528.519L480.826 537.51C481.019 538.606 480.375 539.078 479.388 538.564L471.289 534.352C470.302 533.838 468.705 533.845 467.722 534.367L459.66 538.651C458.677 539.173 458.029 538.706 458.212 537.608L459.716 528.604C459.9 527.506 459.4 525.99 458.599 525.216L452.034 518.873C451.234 518.099 451.477 517.339 452.578 517.174L461.606 515.822C462.707 515.657 463.995 514.712 464.483 513.712L468.488 505.508C468.976 504.508 469.774 504.505 470.271 505.5L474.347 513.669C474.844 514.665 476.14 515.598 477.242 515.753L486.282 517.027C487.384 517.182 487.634 517.94 486.841 518.721L480.332 525.121C479.538 525.902 479.051 527.423 479.244 528.519Z" fill="#f7f7f7" fill-rule="nonzero" opacity="1" stroke="none"/>
</g>
</g>
</svg>
