<svg width="125" height="23" viewBox="0 0 125 23" fill="none" xmlns="http://www.w3.org/2000/svg">
<path d="M0.852273 3.58807V0.545454H15.1875V3.58807H9.84375V18H6.19602V3.58807H0.852273ZM16.1207 18V4.90909H19.6406V7.19318H19.777C20.0156 6.38068 20.4162 5.76705 20.9787 5.35227C21.5412 4.93182 22.1889 4.72159 22.9219 4.72159C23.1037 4.72159 23.2997 4.73295 23.5099 4.75568C23.7202 4.77841 23.9048 4.80966 24.0639 4.84943V8.07102C23.8935 8.01989 23.6577 7.97443 23.3565 7.93466C23.0554 7.89489 22.7798 7.875 22.5298 7.875C21.9957 7.875 21.5185 7.99148 21.098 8.22443C20.6832 8.4517 20.3537 8.76989 20.1094 9.17898C19.8707 9.58807 19.7514 10.0597 19.7514 10.5938V18H16.1207ZM31.2976 18.2557C29.951 18.2557 28.7919 17.983 27.8203 17.4375C26.8544 16.8864 26.1101 16.108 25.5874 15.1023C25.0646 14.0909 24.8033 12.8949 24.8033 11.5142C24.8033 10.1676 25.0646 8.9858 25.5874 7.96875C26.1101 6.9517 26.8459 6.15909 27.7947 5.59091C28.7493 5.02273 29.8686 4.73864 31.1527 4.73864C32.0163 4.73864 32.8203 4.87784 33.5646 5.15625C34.3146 5.42898 34.968 5.84091 35.5249 6.39205C36.0874 6.94318 36.5249 7.63636 36.8374 8.47159C37.1499 9.30114 37.3061 10.2727 37.3061 11.3864V12.3835H26.2521V10.1335H33.8885C33.8885 9.6108 33.7749 9.14773 33.5476 8.74432C33.3203 8.34091 33.005 8.02557 32.6016 7.7983C32.2038 7.56534 31.7408 7.44886 31.2124 7.44886C30.6612 7.44886 30.1726 7.5767 29.7464 7.83239C29.326 8.08239 28.9964 8.42045 28.7578 8.84659C28.5192 9.26705 28.397 9.7358 28.3913 10.2528V12.392C28.3913 13.0398 28.5107 13.5994 28.7493 14.071C28.9936 14.5426 29.3374 14.9062 29.7805 15.1619C30.2237 15.4176 30.7493 15.5455 31.3572 15.5455C31.7607 15.5455 32.13 15.4886 32.4652 15.375C32.8004 15.2614 33.0874 15.0909 33.326 14.8636C33.5646 14.6364 33.7464 14.358 33.8714 14.0284L37.2294 14.25C37.0589 15.0568 36.7095 15.7614 36.1811 16.3636C35.6584 16.9602 34.9822 17.4261 34.1527 17.7614C33.3288 18.0909 32.3771 18.2557 31.2976 18.2557ZM45.6413 18.2557C44.2947 18.2557 43.1357 17.983 42.1641 17.4375C41.1982 16.8864 40.4538 16.108 39.9311 15.1023C39.4084 14.0909 39.147 12.8949 39.147 11.5142C39.147 10.1676 39.4084 8.9858 39.9311 7.96875C40.4538 6.9517 41.1896 6.15909 42.1385 5.59091C43.093 5.02273 44.2124 4.73864 45.4964 4.73864C46.3601 4.73864 47.1641 4.87784 47.9084 5.15625C48.6584 5.42898 49.3118 5.84091 49.8686 6.39205C50.4311 6.94318 50.8686 7.63636 51.1811 8.47159C51.4936 9.30114 51.6499 10.2727 51.6499 11.3864V12.3835H40.5959V10.1335H48.2322C48.2322 9.6108 48.1186 9.14773 47.8913 8.74432C47.6641 8.34091 47.3487 8.02557 46.9453 7.7983C46.5476 7.56534 46.0845 7.44886 45.5561 7.44886C45.005 7.44886 44.5163 7.5767 44.0902 7.83239C43.6697 8.08239 43.3402 8.42045 43.1016 8.84659C42.8629 9.26705 42.7408 9.7358 42.7351 10.2528V12.392C42.7351 13.0398 42.8544 13.5994 43.093 14.071C43.3374 14.5426 43.6811 14.9062 44.1243 15.1619C44.5675 15.4176 45.093 15.5455 45.701 15.5455C46.1044 15.5455 46.4737 15.4886 46.8089 15.375C47.1442 15.2614 47.4311 15.0909 47.6697 14.8636C47.9084 14.6364 48.0902 14.358 48.2152 14.0284L51.5732 14.25C51.4027 15.0568 51.0533 15.7614 50.5249 16.3636C50.0021 16.9602 49.326 17.4261 48.4964 17.7614C47.6726 18.0909 46.7209 18.2557 45.6413 18.2557ZM63.5561 5.56534C63.4879 4.87784 63.1953 4.34375 62.6783 3.96307C62.1612 3.58239 61.4595 3.39204 60.5732 3.39204C59.9709 3.39204 59.4624 3.47727 59.0476 3.64773C58.6328 3.8125 58.3146 4.04261 58.093 4.33807C57.8771 4.63352 57.7692 4.96875 57.7692 5.34375C57.7578 5.65625 57.8232 5.92898 57.9652 6.16193C58.1129 6.39489 58.3146 6.59659 58.5703 6.76705C58.826 6.93182 59.1214 7.0767 59.4567 7.2017C59.7919 7.32102 60.1499 7.4233 60.5305 7.50852L62.0987 7.88352C62.8601 8.05398 63.5589 8.28125 64.1953 8.56534C64.8317 8.84943 65.3828 9.19886 65.8487 9.61364C66.3146 10.0284 66.6754 10.517 66.9311 11.0795C67.1925 11.642 67.326 12.2869 67.3317 13.0142C67.326 14.0824 67.0533 15.0085 66.5135 15.7926C65.9794 16.571 65.2067 17.1761 64.1953 17.608C63.1896 18.0341 61.9766 18.2472 60.5561 18.2472C59.147 18.2472 57.9197 18.0312 56.8743 17.5994C55.8345 17.1676 55.022 16.5284 54.4368 15.6818C53.8572 14.8295 53.5533 13.7756 53.5249 12.5199H57.0959C57.1357 13.1051 57.3033 13.5937 57.5987 13.9858C57.8999 14.3722 58.3004 14.6648 58.8004 14.8636C59.3061 15.0568 59.8771 15.1534 60.5135 15.1534C61.1385 15.1534 61.6811 15.0625 62.1413 14.8807C62.6072 14.6989 62.968 14.446 63.2237 14.1222C63.4794 13.7983 63.6072 13.4261 63.6072 13.0057C63.6072 12.6136 63.4908 12.2841 63.2578 12.017C63.0305 11.75 62.6953 11.5227 62.2521 11.3352C61.8146 11.1477 61.2777 10.9773 60.6413 10.8239L58.7408 10.3466C57.2692 9.98864 56.1072 9.42898 55.255 8.66761C54.4027 7.90625 53.9794 6.88068 53.9851 5.59091C53.9794 4.53409 54.2607 3.6108 54.8288 2.82102C55.4027 2.03125 56.1896 1.41477 57.1896 0.971591C58.1896 0.528409 59.326 0.306818 60.5987 0.306818C61.8942 0.306818 63.0249 0.528409 63.9908 0.971591C64.9624 1.41477 65.718 2.03125 66.2578 2.82102C66.7976 3.6108 67.076 4.52557 67.093 5.56534H63.5561ZM69.7457 22.9091V4.90909H73.3253V7.10795H73.4872C73.6463 6.75568 73.8764 6.39773 74.1776 6.03409C74.4844 5.66477 74.8821 5.35795 75.3707 5.11364C75.8651 4.86364 76.4787 4.73864 77.2116 4.73864C78.1662 4.73864 79.0469 4.98864 79.8537 5.48864C80.6605 5.98295 81.3054 6.73011 81.7884 7.73011C82.2713 8.72443 82.5128 9.97159 82.5128 11.4716C82.5128 12.9318 82.277 14.1648 81.8054 15.1705C81.3395 16.1705 80.7031 16.929 79.8963 17.446C79.0952 17.9574 78.1974 18.2131 77.2031 18.2131C76.4986 18.2131 75.8991 18.0966 75.4048 17.8636C74.9162 17.6307 74.5156 17.3381 74.2031 16.9858C73.8906 16.6278 73.652 16.267 73.4872 15.9034H73.3764V22.9091H69.7457ZM73.2997 11.4545C73.2997 12.233 73.4077 12.9119 73.6236 13.4915C73.8395 14.071 74.152 14.5227 74.5611 14.8466C74.9702 15.1648 75.4673 15.3239 76.0526 15.3239C76.6435 15.3239 77.1435 15.1619 77.5526 14.8381C77.9616 14.5085 78.2713 14.054 78.4815 13.4744C78.6974 12.8892 78.8054 12.2159 78.8054 11.4545C78.8054 10.6989 78.7003 10.0341 78.4901 9.46023C78.2798 8.88636 77.9702 8.4375 77.5611 8.11364C77.152 7.78977 76.6491 7.62784 76.0526 7.62784C75.4616 7.62784 74.9616 7.78409 74.5526 8.09659C74.1491 8.40909 73.8395 8.85227 73.6236 9.42614C73.4077 10 73.2997 10.6761 73.2997 11.4545ZM88.6662 18.2472C87.831 18.2472 87.0866 18.1023 86.4332 17.8125C85.7798 17.517 85.2628 17.0824 84.8821 16.5085C84.5071 15.929 84.3196 15.2074 84.3196 14.3438C84.3196 13.6165 84.4531 13.0057 84.7202 12.5114C84.9872 12.017 85.3509 11.6193 85.8111 11.3182C86.2713 11.017 86.794 10.7898 87.3793 10.6364C87.9702 10.483 88.5895 10.375 89.2372 10.3125C89.9986 10.233 90.6122 10.1591 91.0781 10.0909C91.544 10.017 91.8821 9.90909 92.0923 9.76705C92.3026 9.625 92.4077 9.41477 92.4077 9.13636V9.08523C92.4077 8.54545 92.2372 8.12784 91.8963 7.83239C91.5611 7.53693 91.0838 7.3892 90.4645 7.3892C89.8111 7.3892 89.2912 7.53409 88.9048 7.82386C88.5185 8.10795 88.2628 8.46591 88.1378 8.89773L84.7798 8.625C84.9503 7.82955 85.2855 7.14205 85.7855 6.5625C86.2855 5.97727 86.9304 5.52841 87.7202 5.21591C88.5156 4.89773 89.4361 4.73864 90.4815 4.73864C91.2088 4.73864 91.9048 4.82386 92.5696 4.99432C93.2401 5.16477 93.8338 5.42898 94.3509 5.78693C94.8736 6.14489 95.2855 6.60511 95.5866 7.16761C95.8878 7.72443 96.0384 8.39205 96.0384 9.17045V18H92.5952V16.1847H92.4929C92.2827 16.5938 92.0014 16.9545 91.6491 17.267C91.2969 17.5739 90.8736 17.8153 90.3793 17.9915C89.8849 18.1619 89.3139 18.2472 88.6662 18.2472ZM89.706 15.7415C90.2401 15.7415 90.7116 15.6364 91.1207 15.4261C91.5298 15.2102 91.8509 14.9205 92.0838 14.5568C92.3168 14.1932 92.4332 13.7812 92.4332 13.321V11.9318C92.3196 12.0057 92.1634 12.0739 91.9645 12.1364C91.7713 12.1932 91.5526 12.2472 91.3082 12.2983C91.0639 12.3437 90.8196 12.3864 90.5753 12.4261C90.331 12.4602 90.1094 12.4915 89.9105 12.5199C89.4844 12.5824 89.1122 12.6818 88.794 12.8182C88.4759 12.9545 88.2287 13.1392 88.0526 13.3722C87.8764 13.5994 87.7884 13.8835 87.7884 14.2244C87.7884 14.7188 87.9673 15.0966 88.3253 15.358C88.6889 15.6136 89.1491 15.7415 89.706 15.7415ZM104.77 18.2557C103.429 18.2557 102.276 17.9716 101.31 17.4034C100.349 16.8295 99.6108 16.0341 99.0938 15.017C98.5824 14 98.3267 12.8295 98.3267 11.5057C98.3267 10.1648 98.5852 8.98864 99.1023 7.97727C99.625 6.96023 100.366 6.16761 101.327 5.59943C102.287 5.02557 103.429 4.73864 104.753 4.73864C105.895 4.73864 106.895 4.94602 107.753 5.36079C108.611 5.77557 109.29 6.35795 109.79 7.10795C110.29 7.85795 110.565 8.73864 110.616 9.75H107.19C107.094 9.09659 106.838 8.57102 106.423 8.1733C106.014 7.76989 105.477 7.56818 104.812 7.56818C104.25 7.56818 103.759 7.72159 103.338 8.02841C102.923 8.32955 102.599 8.76989 102.366 9.34943C102.134 9.92898 102.017 10.6307 102.017 11.4545C102.017 12.2898 102.131 13 102.358 13.5852C102.591 14.1705 102.918 14.6165 103.338 14.9233C103.759 15.2301 104.25 15.3835 104.812 15.3835C105.227 15.3835 105.599 15.2983 105.929 15.1278C106.264 14.9574 106.54 14.7102 106.756 14.3864C106.977 14.0568 107.122 13.6619 107.19 13.2017H110.616C110.56 14.2017 110.287 15.0824 109.798 15.8438C109.315 16.5994 108.648 17.1903 107.795 17.6165C106.943 18.0426 105.935 18.2557 104.77 18.2557ZM118.907 18.2557C117.56 18.2557 116.401 17.983 115.43 17.4375C114.464 16.8864 113.719 16.108 113.197 15.1023C112.674 14.0909 112.413 12.8949 112.413 11.5142C112.413 10.1676 112.674 8.9858 113.197 7.96875C113.719 6.9517 114.455 6.15909 115.404 5.59091C116.359 5.02273 117.478 4.73864 118.762 4.73864C119.626 4.73864 120.43 4.87784 121.174 5.15625C121.924 5.42898 122.577 5.84091 123.134 6.39205C123.697 6.94318 124.134 7.63636 124.447 8.47159C124.759 9.30114 124.915 10.2727 124.915 11.3864V12.3835H113.862V10.1335H121.498C121.498 9.6108 121.384 9.14773 121.157 8.74432C120.93 8.34091 120.614 8.02557 120.211 7.7983C119.813 7.56534 119.35 7.44886 118.822 7.44886C118.271 7.44886 117.782 7.5767 117.356 7.83239C116.935 8.08239 116.606 8.42045 116.367 8.84659C116.129 9.26705 116.006 9.7358 116.001 10.2528V12.392C116.001 13.0398 116.12 13.5994 116.359 14.071C116.603 14.5426 116.947 14.9062 117.39 15.1619C117.833 15.4176 118.359 15.5455 118.967 15.5455C119.37 15.5455 119.739 15.4886 120.075 15.375C120.41 15.2614 120.697 15.0909 120.935 14.8636C121.174 14.6364 121.356 14.358 121.481 14.0284L124.839 14.25C124.668 15.0568 124.319 15.7614 123.79 16.3636C123.268 16.9602 122.592 17.4261 121.762 17.7614C120.938 18.0909 119.987 18.2557 118.907 18.2557Z" fill="black"/>
</svg>
