<svg width="166" height="52" viewBox="0 0 166 52" fill="none" xmlns="http://www.w3.org/2000/svg">
<path d="M0.245728 4.78406V0.72724H19.3594V4.78406H12.2344V24H7.37073V4.78406H0.245728Z" fill="black"/>
<path d="M20.6037 24V6.54542H25.2969V9.59088H25.4787C25.7969 8.50754 26.331 7.68936 27.081 7.13633C27.831 6.57572 28.6946 6.29542 29.6719 6.29542C29.9143 6.29542 30.1757 6.31057 30.456 6.34088C30.7363 6.37118 30.9825 6.41285 31.1946 6.46588V10.7613C30.9673 10.6931 30.6529 10.6325 30.2514 10.5795C29.8499 10.5265 29.4825 10.5 29.1491 10.5C28.437 10.5 27.8007 10.6553 27.24 10.9659C26.687 11.2689 26.2476 11.6931 25.9219 12.2386C25.6037 12.7841 25.4446 13.4128 25.4446 14.125V24H20.6037Z" fill="black"/>
<path d="M40.8395 24.3409C39.044 24.3409 37.4986 23.9772 36.2031 23.25C34.9152 22.5151 33.9228 21.4772 33.2258 20.1363C32.5289 18.7878 32.1804 17.1931 32.1804 15.3522C32.1804 13.5568 32.5289 11.981 33.2258 10.625C33.9228 9.26891 34.9039 8.21209 36.169 7.45451C37.4417 6.69694 38.9342 6.31815 40.6463 6.31815C41.7978 6.31815 42.8698 6.50376 43.8622 6.87497C44.8622 7.2386 45.7334 7.78785 46.4758 8.52269C47.2258 9.25754 47.8092 10.1818 48.2258 11.2954C48.6425 12.4015 48.8508 13.6969 48.8508 15.1818V16.5113H34.1122V13.5113H44.294C44.294 12.8144 44.1425 12.1969 43.8395 11.6591C43.5364 11.1212 43.116 10.7007 42.5781 10.3977C42.0478 10.0871 41.4304 9.93179 40.7258 9.93179C39.991 9.93179 39.3395 10.1022 38.7713 10.4431C38.2107 10.7765 37.7713 11.2272 37.4531 11.7954C37.1349 12.356 36.9721 12.981 36.9645 13.6704V16.5227C36.9645 17.3863 37.1236 18.1325 37.4417 18.7613C37.7675 19.3901 38.2258 19.875 38.8167 20.2159C39.4077 20.5568 40.1084 20.7272 40.919 20.7272C41.4569 20.7272 41.9493 20.6515 42.3963 20.5C42.8433 20.3485 43.2258 20.1212 43.544 19.8181C43.8622 19.5151 44.1046 19.1439 44.2713 18.7045L48.7486 19C48.5213 20.0757 48.0554 21.0151 47.3508 21.8181C46.6539 22.6136 45.7524 23.2348 44.6463 23.6818C43.5478 24.1212 42.2789 24.3409 40.8395 24.3409Z" fill="black"/>
<path d="M59.9645 24.3409C58.169 24.3409 56.6236 23.9772 55.3281 23.25C54.0402 22.5151 53.0478 21.4772 52.3508 20.1363C51.6539 18.7878 51.3054 17.1931 51.3054 15.3522C51.3054 13.5568 51.6539 11.981 52.3508 10.625C53.0478 9.26891 54.0289 8.21209 55.294 7.45451C56.5667 6.69694 58.0592 6.31815 59.7713 6.31815C60.9228 6.31815 61.9948 6.50376 62.9872 6.87497C63.9872 7.2386 64.8584 7.78785 65.6008 8.52269C66.3508 9.25754 66.9342 10.1818 67.3508 11.2954C67.7675 12.4015 67.9758 13.6969 67.9758 15.1818V16.5113H53.2372V13.5113H63.419C63.419 12.8144 63.2675 12.1969 62.9645 11.6591C62.6614 11.1212 62.241 10.7007 61.7031 10.3977C61.1728 10.0871 60.5554 9.93179 59.8508 9.93179C59.116 9.93179 58.4645 10.1022 57.8963 10.4431C57.3357 10.7765 56.8963 11.2272 56.5781 11.7954C56.2599 12.356 56.0971 12.981 56.0895 13.6704V16.5227C56.0895 17.3863 56.2486 18.1325 56.5667 18.7613C56.8925 19.3901 57.3508 19.875 57.9417 20.2159C58.5327 20.5568 59.2334 20.7272 60.044 20.7272C60.5819 20.7272 61.0743 20.6515 61.5213 20.5C61.9683 20.3485 62.3508 20.1212 62.669 19.8181C62.9872 19.5151 63.2296 19.1439 63.3963 18.7045L67.8736 19C67.6463 20.0757 67.1804 21.0151 66.4758 21.8181C65.7789 22.6136 64.8774 23.2348 63.7713 23.6818C62.6728 24.1212 61.4039 24.3409 59.9645 24.3409Z" fill="black"/>
<path d="M83.8508 7.42042C83.7599 6.50375 83.3698 5.79163 82.6804 5.28406C81.991 4.77648 81.0554 4.52269 79.8736 4.52269C79.0705 4.52269 78.3925 4.63633 77.8395 4.8636C77.2864 5.0833 76.8622 5.39012 76.5667 5.78406C76.2789 6.178 76.1349 6.62497 76.1349 7.12497C76.1198 7.54163 76.2069 7.90527 76.3963 8.21588C76.5933 8.52648 76.8622 8.79542 77.2031 9.02269C77.544 9.24239 77.938 9.43557 78.3849 9.60224C78.8319 9.76133 79.3092 9.89769 79.8167 10.0113L81.9077 10.5113C82.9228 10.7386 83.8546 11.0416 84.7031 11.4204C85.5516 11.7992 86.2864 12.2651 86.9077 12.8181C87.5289 13.3712 88.0099 14.0227 88.3508 14.7727C88.6993 15.5227 88.8774 16.3825 88.8849 17.3522C88.8774 18.7765 88.5137 20.0113 87.794 21.0568C87.0819 22.0947 86.0516 22.9015 84.7031 23.4772C83.3622 24.0454 81.7448 24.3295 79.8508 24.3295C77.9721 24.3295 76.3357 24.0416 74.9417 23.4659C73.5554 22.8901 72.4721 22.0378 71.6917 20.9091C70.919 19.7727 70.5137 18.3674 70.4758 16.6931H75.2372C75.2902 17.4735 75.5137 18.125 75.9077 18.6477C76.3092 19.1628 76.8433 19.553 77.5099 19.8181C78.1842 20.0757 78.9455 20.2045 79.794 20.2045C80.6274 20.2045 81.3508 20.0833 81.9645 19.8409C82.5857 19.5985 83.0668 19.2613 83.4077 18.8295C83.7486 18.3977 83.919 17.9015 83.919 17.3409C83.919 16.8182 83.7637 16.3788 83.4531 16.0227C83.1501 15.6666 82.7031 15.3636 82.1122 15.1136C81.5289 14.8636 80.813 14.6363 79.9645 14.4318L77.4304 13.7954C75.4683 13.3181 73.919 12.5719 72.7827 11.5568C71.6463 10.5416 71.0819 9.17421 71.0895 7.45451C71.0819 6.04542 71.4569 4.81436 72.2145 3.76133C72.9796 2.7083 74.0289 1.88633 75.3622 1.29542C76.6955 0.704512 78.2107 0.409058 79.9077 0.409058C81.6349 0.409058 83.1425 0.704512 84.4304 1.29542C85.7258 1.88633 86.7334 2.7083 87.4531 3.76133C88.1728 4.81436 88.544 6.03406 88.5667 7.42042H83.8508Z" fill="black"/>
<path d="M92.1037 30.5454V6.54542H96.8764V9.47724H97.0923C97.3044 9.00754 97.6113 8.53027 98.0128 8.04542C98.4219 7.553 98.9522 7.14391 99.6037 6.81815C100.263 6.48482 101.081 6.31815 102.058 6.31815C103.331 6.31815 104.505 6.65148 105.581 7.31815C106.657 7.97724 107.517 8.97345 108.16 10.3068C108.804 11.6325 109.126 13.2954 109.126 15.2954C109.126 17.2424 108.812 18.8863 108.183 20.2272C107.562 21.5606 106.714 22.5719 105.638 23.2613C104.57 23.9431 103.373 24.2841 102.047 24.2841C101.107 24.2841 100.308 24.1288 99.6491 23.8181C98.9976 23.5075 98.4635 23.1174 98.0469 22.6477C97.6302 22.1704 97.312 21.6894 97.0923 21.2045H96.9446V30.5454H92.1037ZM96.8423 15.2727C96.8423 16.3106 96.9863 17.2159 97.2741 17.9886C97.562 18.7613 97.9787 19.3636 98.5241 19.7954C99.0696 20.2197 99.7325 20.4318 100.513 20.4318C101.301 20.4318 101.967 20.2159 102.513 19.7841C103.058 19.3447 103.471 18.7386 103.751 17.9659C104.039 17.1856 104.183 16.2878 104.183 15.2727C104.183 14.2651 104.043 13.3788 103.763 12.6136C103.482 11.8485 103.07 11.25 102.524 10.8181C101.979 10.3863 101.308 10.1704 100.513 10.1704C99.7249 10.1704 99.0582 10.3788 98.5128 10.7954C97.9749 11.2121 97.562 11.803 97.2741 12.5681C96.9863 13.3333 96.8423 14.2348 96.8423 15.2727Z" fill="black"/>
<path d="M117.331 24.3295C116.217 24.3295 115.225 24.1363 114.354 23.75C113.482 23.356 112.793 22.7765 112.285 22.0113C111.785 21.2386 111.535 20.2765 111.535 19.125C111.535 18.1553 111.714 17.3409 112.07 16.6818C112.426 16.0227 112.911 15.4924 113.524 15.0909C114.138 14.6894 114.835 14.3863 115.615 14.1818C116.403 13.9772 117.229 13.8333 118.092 13.75C119.107 13.6439 119.926 13.5454 120.547 13.4545C121.168 13.356 121.619 13.2121 121.899 13.0227C122.179 12.8333 122.32 12.553 122.32 12.1818V12.1136C122.32 11.3939 122.092 10.8371 121.638 10.4431C121.191 10.0492 120.554 9.85224 119.729 9.85224C118.857 9.85224 118.164 10.0454 117.649 10.4318C117.134 10.8106 116.793 11.2878 116.626 11.8636L112.149 11.5C112.376 10.4394 112.823 9.52269 113.49 8.74997C114.157 7.96966 115.017 7.37118 116.07 6.95451C117.13 6.53027 118.357 6.31815 119.751 6.31815C120.721 6.31815 121.649 6.43179 122.535 6.65906C123.429 6.88633 124.221 7.2386 124.91 7.71588C125.607 8.19315 126.157 8.80679 126.558 9.55679C126.96 10.2992 127.16 11.1894 127.16 12.2272V24H122.57V21.5795H122.433C122.153 22.125 121.778 22.606 121.308 23.0227C120.839 23.4318 120.274 23.7538 119.615 23.9886C118.956 24.2159 118.195 24.3295 117.331 24.3295ZM118.717 20.9886C119.429 20.9886 120.058 20.8485 120.604 20.5681C121.149 20.2803 121.577 19.8939 121.888 19.4091C122.198 18.9242 122.354 18.375 122.354 17.7613V15.9091C122.202 16.0075 121.994 16.0985 121.729 16.1818C121.471 16.2575 121.179 16.3295 120.854 16.3977C120.528 16.4583 120.202 16.5151 119.876 16.5681C119.551 16.6136 119.255 16.6553 118.99 16.6931C118.422 16.7765 117.926 16.9091 117.501 17.0909C117.077 17.2727 116.748 17.5189 116.513 17.8295C116.278 18.1325 116.16 18.5113 116.16 18.9659C116.16 19.625 116.399 20.1288 116.876 20.4772C117.361 20.8181 117.975 20.9886 118.717 20.9886Z" fill="black"/>
<path d="M138.803 24.3409C137.015 24.3409 135.477 23.9621 134.189 23.2045C132.909 22.4394 131.924 21.3788 131.234 20.0227C130.553 18.6666 130.212 17.106 130.212 15.3409C130.212 13.553 130.556 11.9848 131.246 10.6363C131.943 9.28027 132.931 8.22345 134.212 7.46588C135.492 6.70072 137.015 6.31815 138.78 6.31815C140.303 6.31815 141.636 6.59466 142.78 7.14769C143.924 7.70072 144.829 8.47724 145.496 9.47724C146.162 10.4772 146.53 11.6515 146.598 13H142.03C141.901 12.1288 141.56 11.428 141.007 10.8977C140.462 10.3598 139.746 10.0909 138.859 10.0909C138.109 10.0909 137.454 10.2954 136.893 10.7045C136.34 11.106 135.909 11.6931 135.598 12.4659C135.287 13.2386 135.132 14.1742 135.132 15.2727C135.132 16.3863 135.284 17.3333 135.587 18.1136C135.897 18.8939 136.333 19.4886 136.893 19.8977C137.454 20.3068 138.109 20.5113 138.859 20.5113C139.412 20.5113 139.909 20.3977 140.348 20.1704C140.795 19.9431 141.162 19.6136 141.45 19.1818C141.746 18.7424 141.939 18.2159 142.03 17.6022H146.598C146.522 18.9356 146.159 20.1098 145.507 21.125C144.863 22.1325 143.973 22.9204 142.837 23.4886C141.7 24.0568 140.356 24.3409 138.803 24.3409Z" fill="black"/>
<path d="M157.652 24.3409C155.857 24.3409 154.311 23.9772 153.016 23.25C151.728 22.5151 150.735 21.4772 150.038 20.1363C149.341 18.7878 148.993 17.1931 148.993 15.3522C148.993 13.5568 149.341 11.981 150.038 10.625C150.735 9.26891 151.716 8.21209 152.982 7.45451C154.254 6.69694 155.747 6.31815 157.459 6.31815C158.61 6.31815 159.682 6.50376 160.675 6.87497C161.675 7.2386 162.546 7.78785 163.288 8.52269C164.038 9.25754 164.622 10.1818 165.038 11.2954C165.455 12.4015 165.663 13.6969 165.663 15.1818V16.5113H150.925V13.5113H161.107C161.107 12.8144 160.955 12.1969 160.652 11.6591C160.349 11.1212 159.928 10.7007 159.391 10.3977C158.86 10.0871 158.243 9.93179 157.538 9.93179C156.803 9.93179 156.152 10.1022 155.584 10.4431C155.023 10.7765 154.584 11.2272 154.266 11.7954C153.947 12.356 153.785 12.981 153.777 13.6704V16.5227C153.777 17.3863 153.936 18.1325 154.254 18.7613C154.58 19.3901 155.038 19.875 155.629 20.2159C156.22 20.5568 156.921 20.7272 157.732 20.7272C158.269 20.7272 158.762 20.6515 159.209 20.5C159.656 20.3485 160.038 20.1212 160.357 19.8181C160.675 19.5151 160.917 19.1439 161.084 18.7045L165.561 19C165.334 20.0757 164.868 21.0151 164.163 21.8181C163.466 22.6136 162.565 23.2348 161.459 23.6818C160.36 24.1212 159.091 24.3409 157.652 24.3409Z" fill="black"/>
<path d="M11.264 39.192V50.966H12.342V40.256H19.328V50.91H20.434V39.192H11.264ZM11.978 44.05V45.086H19.79V44.05H11.978ZM11.964 49.006V50.056H19.818V49.006H11.964Z" fill="black"/>
<path d="M26.496 41.194V42.258H38.718V41.194H26.496ZM29.296 47.438V48.502H35.82V47.438H29.296ZM32.026 38.254V51.12H33.132V38.254H32.026ZM31.704 41.544C30.584 44.232 28.358 46.836 26.02 48.054C26.258 48.264 26.608 48.656 26.776 48.922C29.198 47.508 31.396 44.834 32.642 41.866L31.704 41.544ZM33.482 41.586L32.544 41.908C33.776 44.848 35.932 47.522 38.41 48.894C38.578 48.6 38.942 48.18 39.208 47.956C36.786 46.794 34.588 44.246 33.482 41.586Z" fill="black"/>
<path d="M44.318 38.758V39.724H47.16V38.758H44.318ZM44.262 42.048V43.014H46.992V42.048H44.262ZM44.234 45.408V46.388H47.006V45.408H44.234ZM43.8 38.758V43.784C43.8 45.856 43.73 48.67 42.834 50.644C43.072 50.728 43.478 50.952 43.66 51.12C44.584 49.048 44.71 45.954 44.71 43.784V38.758H43.8ZM46.628 38.758V49.776C46.628 49.958 46.558 50.028 46.39 50.042C46.222 50.042 45.676 50.042 45.06 50.028C45.2 50.294 45.312 50.742 45.354 50.994C46.25 50.994 46.782 50.98 47.118 50.798C47.454 50.63 47.566 50.322 47.566 49.804V38.758H46.628ZM49.106 38.66C49.596 39.43 50.086 40.452 50.254 41.096L51.22 40.662C51.024 40.018 50.52 39.038 50.002 38.296L49.106 38.66ZM53.642 38.254C53.32 39.164 52.704 40.424 52.214 41.208L53.11 41.558C53.614 40.802 54.23 39.64 54.72 38.618L53.642 38.254ZM50.128 45.324C49.988 47.564 49.582 49.37 47.538 50.322C47.762 50.518 48.056 50.882 48.182 51.12C50.478 49.986 50.996 47.928 51.178 45.324H50.128ZM52.326 45.184V49.552C52.326 50.616 52.564 50.938 53.544 50.938C53.754 50.938 54.566 50.938 54.776 50.938C55.602 50.938 55.868 50.462 55.966 48.642C55.686 48.572 55.266 48.404 55.042 48.222C55.014 49.762 54.958 49.972 54.664 49.972C54.482 49.972 53.838 49.972 53.698 49.972C53.404 49.972 53.348 49.93 53.348 49.552V45.184H52.326ZM49.61 41.992H53.978V44.568H49.61V41.992ZM48.588 41.054V45.506H55.042V41.054H48.588Z" fill="black"/>
<path d="M61.286 49.216V50.252H71.17V49.216H61.286ZM65.584 38.324V49.804H66.662V38.324H65.584ZM60.768 45.31V51.134H61.832V45.31H60.768ZM70.61 45.31V51.092H71.688V45.31H70.61ZM61.314 39.584V44.414H71.128V39.584H70.036V43.392H62.35V39.584H61.314Z" fill="black"/>
<path d="M82.076 43.042V44.078H89.594V43.042H82.076ZM85.366 38.282V51.12H86.43V38.282H85.366ZM77.19 42.482V43.322H81.558V42.482H77.19ZM77.274 38.744V39.584H81.572V38.744H77.274ZM77.19 44.358V45.198H81.558V44.358H77.19ZM76.532 40.578V41.446H82.104V40.578H76.532ZM77.68 46.248V47.116H80.578V49.454H77.68V50.336H81.516V46.248H77.68ZM77.176 46.248V50.98H78.114V46.248H77.176Z" fill="black"/>
<path d="M94.606 49.244V50.252H104.98V49.244H94.606ZM93.598 39.164V40.158H105.988V39.164H93.598ZM94.032 41.558V51.12H95.054V41.558H94.032ZM104.56 41.558V51.078H105.596V41.558H104.56ZM99.212 39.472V42.174H100.276V39.472H99.212ZM99.282 42.09V47.634H100.206V42.09H99.282ZM97.28 45.282H102.222V47.116H97.28V45.282ZM97.28 42.608H102.222V44.428H97.28V42.608ZM96.384 41.712V48.012H103.146V41.712H96.384Z" fill="black"/>
<path d="M120.17 38.366L119.4 38.688C119.75 39.192 120.226 39.99 120.506 40.564L121.29 40.214C121.01 39.682 120.506 38.856 120.17 38.366ZM121.976 38.016L121.206 38.338C121.584 38.814 122.032 39.626 122.34 40.2L123.124 39.864C122.83 39.318 122.312 38.492 121.976 38.016ZM121.43 40.886L120.576 40.34C120.324 40.41 120.044 40.424 119.834 40.424C119.19 40.424 113.604 40.424 112.806 40.424C112.344 40.424 111.798 40.368 111.406 40.326V41.572C111.77 41.544 112.246 41.516 112.806 41.516C113.604 41.516 119.162 41.516 119.96 41.516C119.778 42.86 119.12 44.82 118.126 46.08C116.964 47.578 115.382 48.768 112.68 49.454L113.632 50.504C116.194 49.692 117.86 48.404 119.134 46.752C120.24 45.324 120.926 43.056 121.22 41.586C121.276 41.32 121.346 41.082 121.43 40.886Z" fill="black"/>
<path d="M128.444 40.41C128.458 40.76 128.458 41.18 128.458 41.502C128.458 42.048 128.458 47.83 128.458 48.404C128.458 48.894 128.43 49.916 128.43 50.098H129.62C129.62 49.916 129.606 49.02 129.606 48.558C129.606 47.984 129.606 41.544 129.606 41.544H137.25C137.25 41.544 137.25 48.04 137.25 48.558C137.25 49.146 137.236 49.944 137.222 50.098H138.44C138.426 49.944 138.412 48.852 138.412 48.404C138.412 47.872 138.412 42.16 138.412 41.502C138.412 41.152 138.412 40.76 138.44 40.424C138.006 40.438 137.502 40.438 137.208 40.438C136.522 40.438 130.432 40.438 129.69 40.438C129.354 40.438 128.99 40.438 128.444 40.41ZM137.712 48.208H129.046V49.3H137.712V48.208Z" fill="black"/>
<path d="M153.91 38.8L153.154 39.122C153.532 39.654 154.008 40.494 154.288 41.068L155.044 40.718C154.764 40.158 154.26 39.304 153.91 38.8ZM155.436 38.24L154.708 38.562C155.1 39.08 155.548 39.878 155.856 40.48L156.612 40.144C156.346 39.626 155.814 38.758 155.436 38.24ZM154.834 41.586L153.91 41.026C153.672 41.124 153.364 41.166 152.986 41.166C152.552 41.166 149.094 41.166 148.52 41.166L148.072 42.174H153.266C152.972 43.448 152.118 45.254 151.026 46.542C149.752 48.026 148.016 49.3 145.44 50.056L146.448 50.966C149.08 50 150.76 48.712 152.034 47.158C153.266 45.646 154.134 43.742 154.512 42.342C154.582 42.118 154.722 41.796 154.834 41.586ZM150.144 39.472L148.856 39.052C148.772 39.402 148.562 39.92 148.422 40.158C147.806 41.418 146.434 43.448 144.012 44.89L144.992 45.618C147.232 44.12 148.702 42.118 149.528 40.578C149.668 40.312 149.92 39.836 150.144 39.472Z" fill="black"/>
</svg>
