<svg width="190" height="57" viewBox="0 0 190 57" fill="none" xmlns="http://www.w3.org/2000/svg">
<path d="M12.2457 8.78409V4.72727H31.3594V8.78409H24.2344V28H19.3707V8.78409H12.2457ZM32.6037 28V10.5455H37.2969V13.5909H37.4787C37.7969 12.5076 38.331 11.6894 39.081 11.1364C39.831 10.5758 40.6946 10.2955 41.6719 10.2955C41.9143 10.2955 42.1757 10.3106 42.456 10.3409C42.7363 10.3712 42.9825 10.4129 43.1946 10.4659V14.7614C42.9673 14.6932 42.6529 14.6326 42.2514 14.5795C41.8499 14.5265 41.4825 14.5 41.1491 14.5C40.437 14.5 39.8007 14.6553 39.2401 14.9659C38.687 15.2689 38.2476 15.6932 37.9219 16.2386C37.6037 16.7841 37.4446 17.4129 37.4446 18.125V28H32.6037ZM52.8395 28.3409C51.044 28.3409 49.4986 27.9773 48.2031 27.25C46.9152 26.5152 45.9228 25.4773 45.2259 24.1364C44.5289 22.7879 44.1804 21.1932 44.1804 19.3523C44.1804 17.5568 44.5289 15.9811 45.2259 14.625C45.9228 13.2689 46.9039 12.2121 48.169 11.4545C49.4418 10.697 50.9342 10.3182 52.6463 10.3182C53.7978 10.3182 54.8698 10.5038 55.8622 10.875C56.8622 11.2386 57.7334 11.7879 58.4759 12.5227C59.2259 13.2576 59.8092 14.1818 60.2259 15.2955C60.6425 16.4015 60.8509 17.697 60.8509 19.1818V20.5114H46.1122V17.5114H56.294C56.294 16.8144 56.1425 16.197 55.8395 15.6591C55.5365 15.1212 55.116 14.7008 54.5781 14.3977C54.0478 14.0871 53.4304 13.9318 52.7259 13.9318C51.991 13.9318 51.3395 14.1023 50.7713 14.4432C50.2107 14.7765 49.7713 15.2273 49.4531 15.7955C49.1349 16.3561 48.9721 16.9811 48.9645 17.6705V20.5227C48.9645 21.3864 49.1236 22.1326 49.4418 22.7614C49.7675 23.3902 50.2259 23.875 50.8168 24.2159C51.4077 24.5568 52.1084 24.7273 52.919 24.7273C53.4569 24.7273 53.9493 24.6515 54.3963 24.5C54.8433 24.3485 55.2259 24.1212 55.544 23.8182C55.8622 23.5152 56.1046 23.1439 56.2713 22.7045L60.7486 23C60.5213 24.0758 60.0554 25.0152 59.3509 25.8182C58.6539 26.6136 57.7524 27.2348 56.6463 27.6818C55.5478 28.1212 54.2789 28.3409 52.8395 28.3409ZM71.9645 28.3409C70.169 28.3409 68.6236 27.9773 67.3281 27.25C66.0402 26.5152 65.0478 25.4773 64.3509 24.1364C63.6539 22.7879 63.3054 21.1932 63.3054 19.3523C63.3054 17.5568 63.6539 15.9811 64.3509 14.625C65.0478 13.2689 66.0289 12.2121 67.294 11.4545C68.5668 10.697 70.0592 10.3182 71.7713 10.3182C72.9228 10.3182 73.9948 10.5038 74.9872 10.875C75.9872 11.2386 76.8584 11.7879 77.6009 12.5227C78.3509 13.2576 78.9342 14.1818 79.3509 15.2955C79.7675 16.4015 79.9759 17.697 79.9759 19.1818V20.5114H65.2372V17.5114H75.419C75.419 16.8144 75.2675 16.197 74.9645 15.6591C74.6615 15.1212 74.241 14.7008 73.7031 14.3977C73.1728 14.0871 72.5554 13.9318 71.8509 13.9318C71.116 13.9318 70.4645 14.1023 69.8963 14.4432C69.3357 14.7765 68.8963 15.2273 68.5781 15.7955C68.2599 16.3561 68.0971 16.9811 68.0895 17.6705V20.5227C68.0895 21.3864 68.2486 22.1326 68.5668 22.7614C68.8925 23.3902 69.3509 23.875 69.9418 24.2159C70.5327 24.5568 71.2334 24.7273 72.044 24.7273C72.5819 24.7273 73.0743 24.6515 73.5213 24.5C73.9683 24.3485 74.3509 24.1212 74.669 23.8182C74.9872 23.5152 75.2296 23.1439 75.3963 22.7045L79.8736 23C79.6463 24.0758 79.1804 25.0152 78.4759 25.8182C77.7789 26.6136 76.8774 27.2348 75.7713 27.6818C74.6728 28.1212 73.4039 28.3409 71.9645 28.3409ZM95.8509 11.4205C95.7599 10.5038 95.3698 9.79167 94.6804 9.28409C93.991 8.77651 93.0554 8.52273 91.8736 8.52273C91.0705 8.52273 90.3925 8.63636 89.8395 8.86364C89.2865 9.08333 88.8622 9.39015 88.5668 9.78409C88.2789 10.178 88.1349 10.625 88.1349 11.125C88.1198 11.5417 88.2069 11.9053 88.3963 12.2159C88.5933 12.5265 88.8622 12.7955 89.2031 13.0227C89.544 13.2424 89.938 13.4356 90.3849 13.6023C90.8319 13.7614 91.3092 13.8977 91.8168 14.0114L93.9077 14.5114C94.9228 14.7386 95.8546 15.0417 96.7031 15.4205C97.5516 15.7992 98.2865 16.2652 98.9077 16.8182C99.5289 17.3712 100.01 18.0227 100.351 18.7727C100.699 19.5227 100.877 20.3826 100.885 21.3523C100.877 22.7765 100.514 24.0114 99.794 25.0568C99.0819 26.0947 98.0516 26.9015 96.7031 27.4773C95.3622 28.0455 93.7448 28.3295 91.8509 28.3295C89.9721 28.3295 88.3357 28.0417 86.9418 27.4659C85.5554 26.8902 84.4721 26.0379 83.6918 24.9091C82.919 23.7727 82.5137 22.3674 82.4759 20.6932H87.2372C87.2902 21.4735 87.5137 22.125 87.9077 22.6477C88.3092 23.1629 88.8433 23.553 89.5099 23.8182C90.1842 24.0758 90.9455 24.2045 91.794 24.2045C92.6274 24.2045 93.3509 24.0833 93.9645 23.8409C94.5857 23.5985 95.0668 23.2614 95.4077 22.8295C95.7486 22.3977 95.919 21.9015 95.919 21.3409C95.919 20.8182 95.7637 20.3788 95.4531 20.0227C95.1501 19.6667 94.7031 19.3636 94.1122 19.1136C93.5289 18.8636 92.813 18.6364 91.9645 18.4318L89.4304 17.7955C87.4683 17.3182 85.919 16.572 84.7827 15.5568C83.6463 14.5417 83.0819 13.1742 83.0895 11.4545C83.0819 10.0455 83.4569 8.81439 84.2145 7.76136C84.9796 6.70833 86.0289 5.88636 87.3622 5.29545C88.6955 4.70454 90.2107 4.40909 91.9077 4.40909C93.6349 4.40909 95.1425 4.70454 96.4304 5.29545C97.7259 5.88636 98.7334 6.70833 99.4531 7.76136C100.173 8.81439 100.544 10.0341 100.567 11.4205H95.8509ZM104.104 34.5455V10.5455H108.876V13.4773H109.092C109.304 13.0076 109.611 12.5303 110.013 12.0455C110.422 11.553 110.952 11.1439 111.604 10.8182C112.263 10.4848 113.081 10.3182 114.058 10.3182C115.331 10.3182 116.505 10.6515 117.581 11.3182C118.657 11.9773 119.517 12.9735 120.161 14.3068C120.804 15.6326 121.126 17.2955 121.126 19.2955C121.126 21.2424 120.812 22.8864 120.183 24.2273C119.562 25.5606 118.714 26.572 117.638 27.2614C116.57 27.9432 115.373 28.2841 114.047 28.2841C113.107 28.2841 112.308 28.1288 111.649 27.8182C110.998 27.5076 110.464 27.1174 110.047 26.6477C109.63 26.1705 109.312 25.6894 109.092 25.2045H108.945V34.5455H104.104ZM108.842 19.2727C108.842 20.3106 108.986 21.2159 109.274 21.9886C109.562 22.7614 109.979 23.3636 110.524 23.7955C111.07 24.2197 111.732 24.4318 112.513 24.4318C113.301 24.4318 113.967 24.2159 114.513 23.7841C115.058 23.3447 115.471 22.7386 115.751 21.9659C116.039 21.1856 116.183 20.2879 116.183 19.2727C116.183 18.2652 116.043 17.3788 115.763 16.6136C115.482 15.8485 115.07 15.25 114.524 14.8182C113.979 14.3864 113.308 14.1705 112.513 14.1705C111.725 14.1705 111.058 14.3788 110.513 14.7955C109.975 15.2121 109.562 15.803 109.274 16.5682C108.986 17.3333 108.842 18.2348 108.842 19.2727ZM129.331 28.3295C128.217 28.3295 127.225 28.1364 126.354 27.75C125.482 27.3561 124.793 26.7765 124.286 26.0114C123.786 25.2386 123.536 24.2765 123.536 23.125C123.536 22.1553 123.714 21.3409 124.07 20.6818C124.426 20.0227 124.911 19.4924 125.524 19.0909C126.138 18.6894 126.835 18.3864 127.615 18.1818C128.403 17.9773 129.229 17.8333 130.092 17.75C131.107 17.6439 131.926 17.5455 132.547 17.4545C133.168 17.3561 133.619 17.2121 133.899 17.0227C134.179 16.8333 134.32 16.553 134.32 16.1818V16.1136C134.32 15.3939 134.092 14.8371 133.638 14.4432C133.191 14.0492 132.554 13.8523 131.729 13.8523C130.857 13.8523 130.164 14.0455 129.649 14.4318C129.134 14.8106 128.793 15.2879 128.626 15.8636L124.149 15.5C124.376 14.4394 124.823 13.5227 125.49 12.75C126.157 11.9697 127.017 11.3712 128.07 10.9545C129.13 10.5303 130.357 10.3182 131.751 10.3182C132.721 10.3182 133.649 10.4318 134.536 10.6591C135.429 10.8864 136.221 11.2386 136.911 11.7159C137.607 12.1932 138.157 12.8068 138.558 13.5568C138.96 14.2992 139.161 15.1894 139.161 16.2273V28H134.57V25.5795H134.433C134.153 26.125 133.778 26.6061 133.308 27.0227C132.839 27.4318 132.274 27.7538 131.615 27.9886C130.956 28.2159 130.195 28.3295 129.331 28.3295ZM130.717 24.9886C131.429 24.9886 132.058 24.8485 132.604 24.5682C133.149 24.2803 133.577 23.8939 133.888 23.4091C134.198 22.9242 134.354 22.375 134.354 21.7614V19.9091C134.202 20.0076 133.994 20.0985 133.729 20.1818C133.471 20.2576 133.179 20.3295 132.854 20.3977C132.528 20.4583 132.202 20.5152 131.876 20.5682C131.551 20.6136 131.255 20.6553 130.99 20.6932C130.422 20.7765 129.926 20.9091 129.501 21.0909C129.077 21.2727 128.748 21.5189 128.513 21.8295C128.278 22.1326 128.161 22.5114 128.161 22.9659C128.161 23.625 128.399 24.1288 128.876 24.4773C129.361 24.8182 129.975 24.9886 130.717 24.9886ZM150.803 28.3409C149.015 28.3409 147.477 27.9621 146.189 27.2045C144.909 26.4394 143.924 25.3788 143.234 24.0227C142.553 22.6667 142.212 21.1061 142.212 19.3409C142.212 17.553 142.556 15.9848 143.246 14.6364C143.943 13.2803 144.931 12.2235 146.212 11.4659C147.492 10.7008 149.015 10.3182 150.78 10.3182C152.303 10.3182 153.636 10.5947 154.78 11.1477C155.924 11.7008 156.829 12.4773 157.496 13.4773C158.162 14.4773 158.53 15.6515 158.598 17H154.03C153.901 16.1288 153.56 15.428 153.007 14.8977C152.462 14.3598 151.746 14.0909 150.859 14.0909C150.109 14.0909 149.454 14.2955 148.893 14.7045C148.34 15.1061 147.909 15.6932 147.598 16.4659C147.287 17.2386 147.132 18.1742 147.132 19.2727C147.132 20.3864 147.284 21.3333 147.587 22.1136C147.897 22.8939 148.333 23.4886 148.893 23.8977C149.454 24.3068 150.109 24.5114 150.859 24.5114C151.412 24.5114 151.909 24.3977 152.348 24.1705C152.795 23.9432 153.162 23.6136 153.45 23.1818C153.746 22.7424 153.939 22.2159 154.03 21.6023H158.598C158.522 22.9356 158.159 24.1098 157.507 25.125C156.863 26.1326 155.973 26.9205 154.837 27.4886C153.7 28.0568 152.356 28.3409 150.803 28.3409ZM169.652 28.3409C167.857 28.3409 166.311 27.9773 165.016 27.25C163.728 26.5152 162.735 25.4773 162.038 24.1364C161.341 22.7879 160.993 21.1932 160.993 19.3523C160.993 17.5568 161.341 15.9811 162.038 14.625C162.735 13.2689 163.716 12.2121 164.982 11.4545C166.254 10.697 167.747 10.3182 169.459 10.3182C170.61 10.3182 171.682 10.5038 172.675 10.875C173.675 11.2386 174.546 11.7879 175.288 12.5227C176.038 13.2576 176.622 14.1818 177.038 15.2955C177.455 16.4015 177.663 17.697 177.663 19.1818V20.5114H162.925V17.5114H173.107C173.107 16.8144 172.955 16.197 172.652 15.6591C172.349 15.1212 171.929 14.7008 171.391 14.3977C170.86 14.0871 170.243 13.9318 169.538 13.9318C168.804 13.9318 168.152 14.1023 167.584 14.4432C167.023 14.7765 166.584 15.2273 166.266 15.7955C165.947 16.3561 165.785 16.9811 165.777 17.6705V20.5227C165.777 21.3864 165.936 22.1326 166.254 22.7614C166.58 23.3902 167.038 23.875 167.629 24.2159C168.22 24.5568 168.921 24.7273 169.732 24.7273C170.269 24.7273 170.762 24.6515 171.209 24.5C171.656 24.3485 172.038 24.1212 172.357 23.8182C172.675 23.5152 172.917 23.1439 173.084 22.7045L177.561 23C177.334 24.0758 176.868 25.0152 176.163 25.8182C175.466 26.6136 174.565 27.2348 173.459 27.6818C172.36 28.1212 171.091 28.3409 169.652 28.3409Z" fill="#222222"/>
<path d="M23.264 43.192V54.966H24.342V44.256H31.328V54.91H32.434V43.192H23.264ZM23.978 48.05V49.086H31.79V48.05H23.978ZM23.964 53.006V54.056H31.818V53.006H23.964ZM38.496 45.194V46.258H50.718V45.194H38.496ZM41.296 51.438V52.502H47.82V51.438H41.296ZM44.026 42.254V55.12H45.132V42.254H44.026ZM43.704 45.544C42.584 48.232 40.358 50.836 38.02 52.054C38.258 52.264 38.608 52.656 38.776 52.922C41.198 51.508 43.396 48.834 44.642 45.866L43.704 45.544ZM45.482 45.586L44.544 45.908C45.776 48.848 47.932 51.522 50.41 52.894C50.578 52.6 50.942 52.18 51.208 51.956C48.786 50.794 46.588 48.246 45.482 45.586ZM56.318 42.758V43.724H59.16V42.758H56.318ZM56.262 46.048V47.014H58.992V46.048H56.262ZM56.234 49.408V50.388H59.006V49.408H56.234ZM55.8 42.758V47.784C55.8 49.856 55.73 52.67 54.834 54.644C55.072 54.728 55.478 54.952 55.66 55.12C56.584 53.048 56.71 49.954 56.71 47.784V42.758H55.8ZM58.628 42.758V53.776C58.628 53.958 58.558 54.028 58.39 54.042C58.222 54.042 57.676 54.042 57.06 54.028C57.2 54.294 57.312 54.742 57.354 54.994C58.25 54.994 58.782 54.98 59.118 54.798C59.454 54.63 59.566 54.322 59.566 53.804V42.758H58.628ZM61.106 42.66C61.596 43.43 62.086 44.452 62.254 45.096L63.22 44.662C63.024 44.018 62.52 43.038 62.002 42.296L61.106 42.66ZM65.642 42.254C65.32 43.164 64.704 44.424 64.214 45.208L65.11 45.558C65.614 44.802 66.23 43.64 66.72 42.618L65.642 42.254ZM62.128 49.324C61.988 51.564 61.582 53.37 59.538 54.322C59.762 54.518 60.056 54.882 60.182 55.12C62.478 53.986 62.996 51.928 63.178 49.324H62.128ZM64.326 49.184V53.552C64.326 54.616 64.564 54.938 65.544 54.938C65.754 54.938 66.566 54.938 66.776 54.938C67.602 54.938 67.868 54.462 67.966 52.642C67.686 52.572 67.266 52.404 67.042 52.222C67.014 53.762 66.958 53.972 66.664 53.972C66.482 53.972 65.838 53.972 65.698 53.972C65.404 53.972 65.348 53.93 65.348 53.552V49.184H64.326ZM61.61 45.992H65.978V48.568H61.61V45.992ZM60.588 45.054V49.506H67.042V45.054H60.588ZM73.286 53.216V54.252H83.17V53.216H73.286ZM77.584 42.324V53.804H78.662V42.324H77.584ZM72.768 49.31V55.134H73.832V49.31H72.768ZM82.61 49.31V55.092H83.688V49.31H82.61ZM73.314 43.584V48.414H83.128V43.584H82.036V47.392H74.35V43.584H73.314ZM94.076 47.042V48.078H101.594V47.042H94.076ZM97.366 42.282V55.12H98.43V42.282H97.366ZM89.19 46.482V47.322H93.558V46.482H89.19ZM89.274 42.744V43.584H93.572V42.744H89.274ZM89.19 48.358V49.198H93.558V48.358H89.19ZM88.532 44.578V45.446H94.104V44.578H88.532ZM89.68 50.248V51.116H92.578V53.454H89.68V54.336H93.516V50.248H89.68ZM89.176 50.248V54.98H90.114V50.248H89.176ZM106.606 53.244V54.252H116.98V53.244H106.606ZM105.598 43.164V44.158H117.988V43.164H105.598ZM106.032 45.558V55.12H107.054V45.558H106.032ZM116.56 45.558V55.078H117.596V45.558H116.56ZM111.212 43.472V46.174H112.276V43.472H111.212ZM111.282 46.09V51.634H112.206V46.09H111.282ZM109.28 49.282H114.222V51.116H109.28V49.282ZM109.28 46.608H114.222V48.428H109.28V46.608ZM108.384 45.712V52.012H115.146V45.712H108.384ZM132.17 42.366L131.4 42.688C131.75 43.192 132.226 43.99 132.506 44.564L133.29 44.214C133.01 43.682 132.506 42.856 132.17 42.366ZM133.976 42.016L133.206 42.338C133.584 42.814 134.032 43.626 134.34 44.2L135.124 43.864C134.83 43.318 134.312 42.492 133.976 42.016ZM133.43 44.886L132.576 44.34C132.324 44.41 132.044 44.424 131.834 44.424C131.19 44.424 125.604 44.424 124.806 44.424C124.344 44.424 123.798 44.368 123.406 44.326V45.572C123.77 45.544 124.246 45.516 124.806 45.516C125.604 45.516 131.162 45.516 131.96 45.516C131.778 46.86 131.12 48.82 130.126 50.08C128.964 51.578 127.382 52.768 124.68 53.454L125.632 54.504C128.194 53.692 129.86 52.404 131.134 50.752C132.24 49.324 132.926 47.056 133.22 45.586C133.276 45.32 133.346 45.082 133.43 44.886ZM140.444 44.41C140.458 44.76 140.458 45.18 140.458 45.502C140.458 46.048 140.458 51.83 140.458 52.404C140.458 52.894 140.43 53.916 140.43 54.098H141.62C141.62 53.916 141.606 53.02 141.606 52.558C141.606 51.984 141.606 45.544 141.606 45.544H149.25C149.25 45.544 149.25 52.04 149.25 52.558C149.25 53.146 149.236 53.944 149.222 54.098H150.44C150.426 53.944 150.412 52.852 150.412 52.404C150.412 51.872 150.412 46.16 150.412 45.502C150.412 45.152 150.412 44.76 150.44 44.424C150.006 44.438 149.502 44.438 149.208 44.438C148.522 44.438 142.432 44.438 141.69 44.438C141.354 44.438 140.99 44.438 140.444 44.41ZM149.712 52.208H141.046V53.3H149.712V52.208ZM165.91 42.8L165.154 43.122C165.532 43.654 166.008 44.494 166.288 45.068L167.044 44.718C166.764 44.158 166.26 43.304 165.91 42.8ZM167.436 42.24L166.708 42.562C167.1 43.08 167.548 43.878 167.856 44.48L168.612 44.144C168.346 43.626 167.814 42.758 167.436 42.24ZM166.834 45.586L165.91 45.026C165.672 45.124 165.364 45.166 164.986 45.166C164.552 45.166 161.094 45.166 160.52 45.166L160.072 46.174H165.266C164.972 47.448 164.118 49.254 163.026 50.542C161.752 52.026 160.016 53.3 157.44 54.056L158.448 54.966C161.08 54 162.76 52.712 164.034 51.158C165.266 49.646 166.134 47.742 166.512 46.342C166.582 46.118 166.722 45.796 166.834 45.586ZM162.144 43.472L160.856 43.052C160.772 43.402 160.562 43.92 160.422 44.158C159.806 45.418 158.434 47.448 156.012 48.89L156.992 49.618C159.232 48.12 160.702 46.118 161.528 44.578C161.668 44.312 161.92 43.836 162.144 43.472Z" fill="#222222"/>
</svg>
